<svg width="100" height="100" viewBox="0 0 100 100" fill="none" xmlns="http://www.w3.org/2000/svg">
<path fill-rule="evenodd" clip-rule="evenodd" d="M50 100C77.6139 100 100 77.6143 100 50C100 22.3857 77.6139 0 50 0C22.3861 0 0 22.3857 0 50C0 77.6143 22.3861 100 50 100Z" fill="#FD6542"/>
<path d="M35.063 42.9921L35.5497 39.1596H29.6873L29.9311 37.1944C30.0445 36.183 30.2473 35.3287 30.5392 34.6316C30.7888 33.9974 31.1608 33.4212 31.6331 32.9375C32.0584 32.5144 32.569 32.1916 33.1291 31.9916C33.7291 31.7879 34.3583 31.6886 34.9904 31.698H35.696C35.9037 31.6993 36.1112 31.6827 36.3161 31.6481C36.479 31.6244 36.6336 31.5597 36.766 31.4598C36.8865 31.3554 36.9645 31.2087 36.985 31.0485L37.4717 28.2617C36.5676 27.9251 35.612 27.7565 34.6499 27.7638C33.4419 27.755 32.2424 27.9719 31.1106 28.4038C30.0347 28.8147 29.0472 29.4358 28.2033 30.2325C27.3362 31.0622 26.6271 32.0493 26.112 33.1436C25.56 34.2881 25.195 35.5822 25.0172 37.026L24.7494 39.1653H21.3453L21.0776 41.33C21.0291 41.7441 21.1061 42.055 21.3085 42.2627C21.5348 42.4834 21.8173 42.6345 22.1237 42.6984L24.2885 43.0467L21.0527 70.3672H23.144C23.8904 70.3672 24.4661 70.1724 24.8709 69.7827C25.2757 69.3931 25.5922 68.8416 25.8204 68.1282L27.0118 63.251L29.3956 42.9921H35.063ZM41.4113 64.1931L45.7897 27.3685H40.6375L36.2793 64.1968L41.4113 64.1931ZM50.7036 38.8114L47.7356 64.1968H52.8685L55.8604 38.8151L50.7036 38.8114ZM57.1374 29.7544C56.957 29.3331 56.7011 28.9501 56.383 28.625C56.0671 28.3016 55.6961 28.04 55.2882 27.8532C54.8871 27.6669 54.4517 27.5706 54.0112 27.5709C53.5826 27.5715 53.1593 27.6679 52.771 27.8532C52.3705 28.0402 52.0076 28.302 51.701 28.625C51.3887 28.9575 51.1386 29.3457 50.9631 29.7704C50.7786 30.2061 50.6846 30.6763 50.6871 31.1511C50.6837 31.6221 50.7777 32.0885 50.9631 32.5196C51.141 32.9362 51.3878 33.3183 51.6927 33.649C51.9908 33.9713 52.3457 34.2331 52.7388 34.4208C53.1307 34.6091 53.5588 34.7055 53.9918 34.7031C54.4286 34.7046 54.8604 34.6083 55.2569 34.4208C55.6622 34.2298 56.0322 33.9687 56.3508 33.649C56.6763 33.3251 56.9403 32.9421 57.1292 32.5196C57.3238 32.091 57.4237 31.6237 57.4217 31.1511C57.4263 30.6721 57.3323 30.1975 57.1457 29.7582L57.1374 29.7544ZM65.5917 52.1027C65.9907 50.8139 66.5034 49.5648 67.1235 48.3709C67.667 47.3135 68.3108 46.3132 69.0455 45.3846C69.7263 44.5381 70.4317 43.8793 71.1615 43.4081C71.8914 42.9369 72.6131 42.7006 73.3264 42.6994C74.4771 42.6994 75.3664 43.1678 75.9945 44.1046C76.6226 45.0414 76.9348 46.4475 76.9311 48.3229C76.9296 49.286 76.8483 50.2473 76.6882 51.1963C76.53 52.1482 76.294 53.0849 75.9825 53.9964C75.6823 54.874 75.2992 55.7197 74.8389 56.5215C74.4154 57.2694 73.9007 57.9592 73.3071 58.5742C72.7639 59.1371 72.1303 59.6003 71.4339 59.9437C70.7498 60.2756 70.0013 60.4455 69.2442 60.4406C68.442 60.4362 67.6471 60.2848 66.8972 59.9935C66.0819 59.6761 65.3683 59.134 64.8354 58.4274L65.5917 52.1027ZM66.4666 40.5573C66.4666 39.9436 66.3166 39.4915 66.0167 39.201C65.7168 38.9105 65.2831 38.7653 64.7158 38.7653H62.0863L58.0474 72.6317H63.1306L64.3956 62.0312C65.0715 62.824 65.9049 63.4603 66.8401 63.8976C67.8375 64.3561 68.9209 64.5855 70.0143 64.5696C71.1248 64.5711 72.2247 64.3471 73.25 63.9107C74.3014 63.4635 75.2784 62.852 76.1463 62.098C77.0706 61.2897 77.8918 60.3658 78.5908 59.3479C79.3373 58.2709 79.9692 57.1155 80.476 55.9013C81.003 54.6388 81.4064 53.3261 81.6803 51.9822C81.9634 50.6078 82.1059 49.207 82.1054 47.8025C82.1054 46.2426 81.9474 44.8779 81.6316 43.7083C81.3157 42.5388 80.8655 41.5603 80.2809 40.7728C79.7279 40.0102 78.9961 39.4023 78.1529 39.0053C77.2689 38.6046 76.3108 38.404 75.344 38.417C74.4691 38.4171 73.6008 38.5728 72.778 38.8773C71.9184 39.1972 71.1076 39.6409 70.3703 40.1949C69.5652 40.7992 68.8233 41.4871 68.1567 42.2476C67.4246 43.0798 66.7692 43.9793 66.1989 44.9347L66.4657 40.5554L66.4666 40.5573Z" fill="white"/>
</svg>
